<?xml version="1.0"?>
<svg xmlns="http://www.w3.org/2000/svg" viewBox="0 0 64 64" width="512" height="512"><g id="BBQ_Grill" data-name="BBQ Grill"><path d="M31.446,8.835A2.573,2.573,0,0,0,30,11a1,1,0,0,0,2,0c0-.112.163-.239.555-.5A2.571,2.571,0,0,0,34,8.336,2.576,2.576,0,0,0,32.555,6.17c-.392-.261-.555-.388-.555-.5s.164-.241.555-.5A2.576,2.576,0,0,0,34,3a1,1,0,0,0-2,0c0,.114-.164.241-.555.5A2.576,2.576,0,0,0,30,5.668a2.574,2.574,0,0,0,1.445,2.166c.391.261.555.389.555.5S31.837,8.575,31.446,8.835Z"/><path d="M26.446,8.835A2.573,2.573,0,0,0,25,11a1,1,0,0,0,2,0c0-.112.163-.239.555-.5A2.571,2.571,0,0,0,29,8.336,2.576,2.576,0,0,0,27.555,6.17c-.392-.261-.555-.388-.555-.5s.164-.241.555-.5A2.576,2.576,0,0,0,29,3a1,1,0,0,0-2,0c0,.114-.164.241-.555.5A2.576,2.576,0,0,0,25,5.668a2.574,2.574,0,0,0,1.445,2.166c.391.261.555.389.555.5S26.837,8.575,26.446,8.835Z"/><path d="M21.446,8.835A2.573,2.573,0,0,0,20,11a1,1,0,0,0,2,0c0-.112.163-.239.555-.5A2.571,2.571,0,0,0,24,8.336,2.576,2.576,0,0,0,22.555,6.17c-.392-.261-.555-.388-.555-.5s.164-.241.555-.5A2.576,2.576,0,0,0,24,3a1,1,0,0,0-2,0c0,.114-.164.241-.555.5A2.576,2.576,0,0,0,20,5.668a2.574,2.574,0,0,0,1.445,2.166c.391.261.555.389.555.5S21.837,8.575,21.446,8.835Z"/><path d="M36.446,8.835A2.573,2.573,0,0,0,35,11a1,1,0,0,0,2,0c0-.112.163-.239.555-.5A2.571,2.571,0,0,0,39,8.336,2.576,2.576,0,0,0,37.555,6.17c-.392-.261-.555-.388-.555-.5s.164-.241.555-.5A2.576,2.576,0,0,0,39,3a1,1,0,0,0-2,0c0,.114-.164.241-.555.5A2.576,2.576,0,0,0,35,5.668a2.574,2.574,0,0,0,1.445,2.166c.391.261.555.389.555.5S36.837,8.575,36.446,8.835Z"/><path d="M41.446,8.835A2.573,2.573,0,0,0,40,11a1,1,0,0,0,2,0c0-.112.163-.239.555-.5A2.571,2.571,0,0,0,44,8.336,2.576,2.576,0,0,0,42.555,6.17c-.392-.261-.555-.388-.555-.5s.164-.241.555-.5A2.576,2.576,0,0,0,44,3a1,1,0,0,0-2,0c0,.114-.164.241-.555.5A2.576,2.576,0,0,0,40,5.668a2.574,2.574,0,0,0,1.445,2.166c.391.261.555.389.555.5S41.837,8.575,41.446,8.835Z"/><path d="M55,25l-4.11.02c.04-.34.06-.68.08-1.02H51a3,3,0,0,0,0-6H48.9a5,5,0,0,0-9.8,0H36.9a5,5,0,0,0-9.8,0H24.9a5,5,0,0,0-9.8,0H13a3,3,0,0,0,0,6h.03c.02.34.04.68.08,1.02L9,25a1,1,0,0,0,0,2l4.43.02a18.939,18.939,0,0,0,6.06,10.27l-5.5,20.53a3,3,0,0,0,.31,2.27,2.927,2.927,0,0,0,1.82,1.39,2.646,2.646,0,0,0,.79.11,3.005,3.005,0,0,0,1.48-.39,3.057,3.057,0,0,0,1.41-1.83l2.54-9.52L29,51.75V59a3,3,0,0,0,6,0V51.75l6.66-1.9,2.55,9.52a2.965,2.965,0,0,0,2.88,2.22,2.877,2.877,0,0,0,.78-.1,2.97,2.97,0,0,0,1.83-1.4,3.023,3.023,0,0,0,.31-2.28l-5.5-20.52a18.939,18.939,0,0,0,6.06-10.27L55,27a1,1,0,0,0,0-2ZM44,16a3.01,3.01,0,0,1,2.82,2H41.18A3.01,3.01,0,0,1,44,16ZM32,16a3.01,3.01,0,0,1,2.82,2H29.18A3.01,3.01,0,0,1,32,16ZM20,16a3.01,3.01,0,0,1,2.82,2H17.18A3.01,3.01,0,0,1,20,16ZM17.87,58.85a1.013,1.013,0,0,1-.48.61,1,1,0,0,1-1.46-1.13L21.2,38.62a18.274,18.274,0,0,0,1.79,1.1ZM29,49.67l-6.14-1.75.48-1.78L29,47.75Zm0-4-5.15-1.46.98-3.63A18.572,18.572,0,0,0,29,41.75ZM33,59a1,1,0,0,1-2,0V35a1,1,0,0,1,2,0Zm2-9.33V47.75l5.66-1.61.48,1.78Zm0-4V41.75a18.572,18.572,0,0,0,4.17-1.17l.98,3.63ZM48.07,58.32a.982.982,0,0,1-.1.77,1,1,0,0,1-.61.47.976.976,0,0,1-.75-.1.964.964,0,0,1-.47-.61L41.01,39.72a18.274,18.274,0,0,0,1.79-1.1ZM42.74,36.17A16.336,16.336,0,0,1,39.4,38.3,16.92,16.92,0,0,1,35,39.73V35a3,3,0,0,0-6,0v4.73a17.113,17.113,0,0,1-4.41-1.43A16.922,16.922,0,0,1,15.06,24H48.94A16.89,16.89,0,0,1,42.74,36.17ZM13,22a1,1,0,0,1,0-2H51a1,1,0,0,1,0,2Z"/></g></svg>
